<svg width="59" height="60" viewBox="0 0 59 60" xmlns="http://www.w3.org/2000/svg" xmlns:xlink="http://www.w3.org/1999/xlink"><title>Page 1</title><defs><path id="a" d="M0 .336h58.774V60H0"/></defs><g fill="none" fill-rule="evenodd"><path d="M37.982 27.155l-8.036 8.036-2.009 2.009a1.42 1.42 0 0 1-2.009 0l-2.009-2.01-4.018-4.017a1.42 1.42 0 0 1 0-2.01l2.01-2.008a1.42 1.42 0 0 1 2.008 0l3.014 3.013 7.031-7.031a1.42 1.42 0 0 1 2.009 0l2.009 2.009a1.42 1.42 0 0 1 0 2.009" fill="#292"/><g><mask id="b" fill="#fff"><use xlink:href="#a"/></mask><path d="M28.942.336C15.042.336 3.362 9.844.05 22.71c-.03.114-.05.232-.05.355 0 .785.636 1.42 1.42 1.42H13.45c.573 0 1.064-.34 1.288-.829 0 0 .018-.034.024-.05 2.481-5.35 7.895-9.064 14.18-9.064 8.63 0 15.627 6.996 15.627 15.626 0 8.63-6.996 15.626-15.626 15.626-6.286 0-11.7-3.713-14.18-9.064a1.418 1.418 0 0 0-1.313-.88H1.42A1.42 1.42 0 0 0 0 37.272c0 .123.02.241.05.355C3.362 50.492 15.042 60 28.942 60c16.475 0 29.831-13.356 29.831-29.832S45.417.336 28.942.336" fill="#292" mask="url(#b)"/></g></g></svg>